<?xml version="1.0" encoding="UTF-8"?>
<svg id="Capa_2" data-name="Capa 2" xmlns="http://www.w3.org/2000/svg" viewBox="0 0 1129.26 231.22">
  <defs>
    <style>
      .cls-1 {
        fill: #63c;
        stroke-width: 0px;
      }
    </style>
  </defs>
  <g id="Capa_1-2" data-name="Capa 1">
    <g id="COLPPY_Logo" data-name="COLPPY Logo">
      <g>
        <path class="cls-1" d="M305.43,188.51c-3.22-.25-.3-.12.9.08-.3-.02-.6-.05-.9-.08Z"/>
        <path class="cls-1" d="M373.49,206.49c-75.59,66.89-181.15-31.39-139.73-59.45,8.65-5.58,23.15-2.33,27.71,7.27,2.6,5.39,5.7,10.55,9.69,15.11,7.78,8.89,18.08,15.76,29.73,18.11,9.91,2.47,21.57,1.71,31.34-2.2.01-.01.02-.01.04-.02,9.22-3.74,16.29-10.16,22.43-17.78-.07.11-.16.21-.21.31.17-.22.35-.45.53-.68-.1.12-.21.25-.32.37,14.95-19.9,19.66-42.87,16.5-67.29-.02.05-.03.09-.04.14-1.2-7.11-3.04-14.36-5.84-20.99-.02-.09-.07-.16-.12-.26-2.46-5.2-5.49-10.4-8.89-14.88h0c-9.1-11.52-21.08-19.99-35.66-21.76-6.1-.68-13.18-.65-19.39.08-18.49,2.76-31.16,10.17-42.75,24.77,2.13-3.02-2.32,2.6-.06.07-34.96,49.72-51.19,116.96-104.72,151.17C77.89,261.83-9.4,186.68.82,105.65,6.31,21.31,89.22-24.44,162.55,18.92c24.09,17.06.45,50.77-25.39,32.25-7.57-4.43-17.15-6.24-25.77-7.68-15.62-1.89-30.69.63-43.49,10.36-3.8,3.18-7.35,6.68-10.51,10.5.02-.04.04-.09.06-.14-8.54,11.78-15.17,25.82-15.99,40.49v.06c-.98,12.91-.51,28.48,4.98,41.73,5.36,12.6,13.81,24.26,24.77,32.5,20.19,15.16,49.44,15.68,69.35-.09,6.14-4.93,11.01-10.74,15.87-16.83,18.68-23.81,44.83-83.38,68.73-117.33,114.29-129.52,259.67,52.57,148.33,161.75Z"/>
        <path class="cls-1" d="M57.09,64.74c-.12.2-.26.4-.39.6"/>
        <path class="cls-1" d="M57.15,64.66c.05-.07.1-.14.16-.21.03-.03.06-.07.08-.1"/>
        <path class="cls-1" d="M258.51,67.34s-.04.05-.06.07c-2.26,2.53,2.19-3.09.06-.07Z"/>
        <path class="cls-1" d="M306.79,188.71s-.2-.08-.43-.12c.11.02.22.03.33.04.04.02.07.05.1.08Z"/>
        <path class="cls-1" d="M319.54,188.64c.17-.01.33-.02.5-.05-.2.02-.36.04-.5.05Z"/>
        <path class="cls-1" d="M320.48,42.45c-.17-.03-.35-.06-.52-.09.24.04.41.07.52.09Z"/>
        <path class="cls-1" d="M343.82,178.71s.07-.06.11-.1c.05-.03.09-.06.14-.09,2.49-1.62-3.64,3.2-.25.19Z"/>
        <path class="cls-1" d="M355.02,167.16c-.18.23-.36.46-.53.68.04-.07.09-.14.15-.22.02-.03.04-.06.06-.09.11-.12.22-.25.32-.37Z"/>
      </g>
      <g>
        <path class="cls-1" d="M436.5,216.2V14.22c0-4.93,4-8.93,8.93-8.93h23.23c4.93,0,8.93,4,8.93,8.93v164.52c0,4.93,4,8.93,8.93,8.93h89.92c4.93,0,8.93,4,8.93,8.93v19.61c0,4.93-4,8.93-8.93,8.93h-131.01c-4.93,0-8.93-4-8.93-8.93Z"/>
        <path class="cls-1" d="M609.18,216.2V14.22c0-4.93,4-8.93,8.93-8.93h80.69c9.72,0,18.65,2.07,26.8,6.19,8.14,4.13,15.23,9.71,21.29,16.72,6.05,7.02,10.76,14.86,14.14,23.53,3.37,8.67,5.06,17.55,5.06,26.63,0,12.39-2.78,24.15-8.34,35.3-5.56,11.15-13.2,20.23-22.92,27.25-9.73,7.02-21.24,10.53-34.54,10.53h-41.09c-4.93,0-8.93,4-8.93,8.93v55.84c0,4.93-4,8.93-8.93,8.93h-23.23c-4.93,0-8.93-4-8.93-8.93ZM650.26,105.04c0,4.93,4,8.93,8.93,8.93h38.71c4.96,0,9.42-1.44,13.4-4.33,3.97-2.89,7.15-7.07,9.53-12.54,2.38-5.47,3.57-11.71,3.57-18.73,0-7.63-1.34-14.14-4.02-19.51-2.68-5.37-6.15-9.39-10.42-12.08-4.27-2.68-8.88-4.03-13.84-4.03h-36.92c-4.93,0-8.93,4-8.93,8.93v53.36Z"/>
        <path class="cls-1" d="M788.4,216.2V14.22c0-4.93,4-8.93,8.93-8.93h80.69c9.72,0,18.65,2.07,26.8,6.19,8.14,4.13,15.23,9.71,21.29,16.72,6.05,7.02,10.76,14.86,14.14,23.53,3.37,8.67,5.06,17.55,5.06,26.63,0,12.39-2.78,24.15-8.34,35.3-5.56,11.15-13.2,20.23-22.92,27.25-9.73,7.02-21.24,10.53-34.54,10.53h-41.09c-4.93,0-8.93,4-8.93,8.93v55.84c0,4.93-4,8.93-8.93,8.93h-23.23c-4.93,0-8.93-4-8.93-8.93ZM829.49,105.04c0,4.93,4,8.93,8.93,8.93h38.71c4.96,0,9.42-1.44,13.4-4.33,3.97-2.89,7.15-7.07,9.53-12.54,2.38-5.47,3.57-11.71,3.57-18.73,0-7.63-1.34-14.14-4.02-19.51-2.68-5.37-6.15-9.39-10.42-12.08-4.27-2.68-8.88-4.03-13.84-4.03h-36.92c-4.93,0-8.93,4-8.93,8.93v53.36Z"/>
        <path class="cls-1" d="M988.26,10.2l41.72,82.82c3.29,6.52,12.59,6.55,15.92.05l42.49-82.93c1.53-2.98,4.59-4.86,7.94-4.86h23.98c6.75,0,11.06,7.2,7.86,13.15l-68.69,127.92c-.7,1.3-1.06,2.75-1.06,4.22v65.62c0,4.93-4,8.93-8.93,8.93h-22.93c-4.93,0-8.93-4-8.93-8.93v-66.23c0-1.47-.37-2.93-1.06-4.22l-68.39-127.3c-3.19-5.95,1.11-13.15,7.86-13.15h24.23c3.37,0,6.46,1.9,7.97,4.91Z"/>
      </g>
    </g>
  </g>
</svg>